<svg xmlns="http://www.w3.org/2000/svg" width="30" height="30.001" viewBox="0 0 30 30.001">
  <path id="pen-to-square-solid" d="M29.028,7.336a3.312,3.312,0,0,1,0,4.689l-1.776,1.782-5.8-5.8,1.782-1.78a3.315,3.315,0,0,1,4.689,0ZM10.207,19.253l9.9-9.908,5.8,5.8L16,25.049a3.284,3.284,0,0,1-1.3.805L9.449,27.607a1.335,1.335,0,0,1-1.456-.4,1.324,1.324,0,0,1-.343-1.4L9.4,20.55a3.284,3.284,0,0,1,.805-1.3ZM11.367,8.68a1.929,1.929,0,0,1,1.895,1.895,1.859,1.859,0,0,1-1.895,1.895H5.684a1.929,1.929,0,0,0-1.895,1.895V29.573a1.894,1.894,0,0,0,1.895,1.895H20.84a1.892,1.892,0,0,0,1.895-1.895V23.836a1.895,1.895,0,1,1,3.789,0v5.737a5.685,5.685,0,0,1-5.684,5.684H5.684A5.684,5.684,0,0,1,0,29.573V14.363A5.684,5.684,0,0,1,5.684,8.68Z" transform="translate(0 -5.255)" fill="#fcd656"/>
</svg>
