<svg xmlns="http://www.w3.org/2000/svg" width="25" height="26.524" viewBox="0 0 25 26.524">
  <path id="gear-solid" d="M39.63,8.631A1.176,1.176,0,0,1,39.3,9.905l-2.243,2.041a9.874,9.874,0,0,1,0,2.632L39.3,16.619a1.176,1.176,0,0,1,.326,1.274,13.151,13.151,0,0,1-.813,1.777l-.243.42a13.649,13.649,0,0,1-1.145,1.621,1.185,1.185,0,0,1-1.269.352l-2.886-.922a11.334,11.334,0,0,1-2.279,1.321l-.648,2.958a1.242,1.242,0,0,1-.943.922,13.537,13.537,0,0,1-2.248.181A13.249,13.249,0,0,1,25,26.343a1.242,1.242,0,0,1-.943-.922l-.648-2.958a10.182,10.182,0,0,1-2.279-1.321l-2.883.922a1.183,1.183,0,0,1-1.27-.352,13.594,13.594,0,0,1-1.145-1.621l-.242-.42a12.921,12.921,0,0,1-.817-1.777,1.177,1.177,0,0,1,.329-1.274l2.241-2.041a10.05,10.05,0,0,1,0-2.632L15.1,9.905a1.175,1.175,0,0,1-.329-1.274,12.982,12.982,0,0,1,.817-1.777l.242-.42a13.42,13.42,0,0,1,1.146-1.619,1.177,1.177,0,0,1,1.27-.353l2.883.92A9.963,9.963,0,0,1,23.41,4.063L24.058,1.1A1.175,1.175,0,0,1,25,.182a13.42,13.42,0,0,1,4.4,0,1.175,1.175,0,0,1,.943.923l.648,2.958a11.062,11.062,0,0,1,2.279,1.319l2.886-.92a1.179,1.179,0,0,1,1.269.353,13.413,13.413,0,0,1,1.145,1.619l.243.42a13.151,13.151,0,0,1,.813,1.777ZM27.2,17.406a4.168,4.168,0,1,0-4.144-4.191A4.153,4.153,0,0,0,27.2,17.406Z" transform="translate(-14.702)" fill="#36382e"/>
</svg>
