<svg xmlns="http://www.w3.org/2000/svg" width="31.429" height="22" viewBox="0 0 31.429 22">
  <path id="dumbbell-solid" d="M5.107,35.143H2.75a1.18,1.18,0,0,0-1.179,1.179v5.107a1.572,1.572,0,0,0-.044,3.143l.044,5.107A1.177,1.177,0,0,0,2.75,50.857H5.107a1.176,1.176,0,0,0,1.179-1.179V36.321A1.179,1.179,0,0,0,5.107,35.143ZM22.393,32H20.036a1.18,1.18,0,0,0-1.179,1.179v8.25H12.571v-8.25A1.177,1.177,0,0,0,11.393,32H9.036a1.18,1.18,0,0,0-1.179,1.179V52.821A1.179,1.179,0,0,0,9.036,54h2.357a1.176,1.176,0,0,0,1.179-1.179v-8.25h6.286v8.25A1.179,1.179,0,0,0,20.036,54h2.357a1.179,1.179,0,0,0,1.179-1.179V33.179A1.177,1.177,0,0,0,22.393,32Zm7.464,9.429V36.321a1.179,1.179,0,0,0-1.179-1.179H26.321a1.182,1.182,0,0,0-1.179,1.179V49.679a1.179,1.179,0,0,0,1.179,1.179h2.357a1.179,1.179,0,0,0,1.179-1.179V44.571a1.571,1.571,0,1,0,0-3.143Z" transform="translate(0 -32)" fill="#f0f6fb"/>
</svg>
