<svg xmlns="http://www.w3.org/2000/svg" width="25.269" height="22.462" viewBox="0 0 25.269 22.462">
  <path id="house-solid" d="M25.261,11.209a1.417,1.417,0,0,1-1.4,1.408h-1.4l.031,7.024a3.154,3.154,0,0,1-.022.355v.711a1.754,1.754,0,0,1-1.755,1.755h-.7c-.048,0-.1-.039-.145,0-.061-.035-.123,0-.184,0H17.2a1.754,1.754,0,0,1-1.755-1.755V16.847a1.4,1.4,0,0,0-1.4-1.4H11.231a1.4,1.4,0,0,0-1.4,1.4v3.861a1.754,1.754,0,0,1-1.755,1.755H5.62c-.066,0-.132,0-.2-.009s-.105.009-.158.009h-.7a1.755,1.755,0,0,1-1.755-1.755V15.794c0-.039,0-.083,0-.123V12.617H1.406A1.391,1.391,0,0,1,0,11.209a1.425,1.425,0,0,1,.439-1.053L11.687.352A1.264,1.264,0,0,1,12.653,0a1.476,1.476,0,0,1,.926.308l11.2,9.849a1.191,1.191,0,0,1,.483,1.053Z" fill="#f0f6fb"/>
</svg>
